<svg xmlns="http://www.w3.org/2000/svg" version="1.1" xmlns:xlink="http://www.w3.org/1999/xlink" viewBox="0 0 10.716652682678749 3.506689932492438"><g transform="matrix(0.7473813911223777,0,0,0.7473813911223777,1.7965405125171738,1.339785414737706)"><rect width="11.901931233943014" height="11.901931233943014" x="-1.1852785512642656" y="-5.397620890409007" fill="#ffffff"></rect><g transform="matrix(1,0,0,1,0,0)" clip-path="url(#SvgjsClipPath22903)"><g clip-path="url(#SvgjsClipPath22898bd00b9d1-fff2-4aa8-a764-d389752f5eb3)"><path d=" M 6.920281054548461 -0.6073609640515862 L 8.541920100071328 -0.6073609640515862 L 6.852693733022868 0.9529319315280051 L 5.2310546875 0.9529319315280051 Z" fill="#102036" transform="matrix(1,0,0,1,0,0)" fill-rule="nonzero"></path></g><g clip-path="url(#SvgjsClipPath22898bd00b9d1-fff2-4aa8-a764-d389752f5eb3)"><path d=" M 7.909735085891617 0.15375752159699496 L 9.531374131414484 0.15375752159699496 L 7.842147764366023 1.7140504171765862 L 6.220508718843156 1.7140504171765862 Z" fill="#3682ae" transform="matrix(1,0,0,1,0,0)" fill-rule="nonzero"></path></g></g><g><path d=" M 0.542724609375 0.223388671875 L 0.526611328125 0.223388671875 Q 0.520751953125 0.20654296875 0.5079345703125 0.185302734375 Q 0.4951171875 0.1640625 0.4742431640625 0.1453857421875 Q 0.453369140625 0.126708984375 0.4237060546875 0.1142578125 Q 0.39404296875 0.101806640625 0.353759765625 0.101806640625 Q 0.31787109375 0.101806640625 0.2900390625 0.11279296875 Q 0.26220703125 0.123779296875 0.2435302734375 0.1435546875 Q 0.224853515625 0.163330078125 0.21533203125 0.1904296875 Q 0.205810546875 0.217529296875 0.205810546875 0.25048828125 Q 0.205810546875 0.30322265625 0.2354736328125 0.3511962890625 Q 0.26513671875 0.399169921875 0.309814453125 0.446044921875 Q 0.3544921875 0.492919921875 0.406494140625 0.539794921875 Q 0.45849609375 0.586669921875 0.503173828125 0.63720703125 Q 0.5478515625 0.687744140625 0.5775146484375 0.7430419921875 Q 0.607177734375 0.79833984375 0.607177734375 0.862060546875 Q 0.607177734375 0.90966796875 0.5906982421875 0.9576416015625 Q 0.57421875 1.005615234375 0.539794921875 1.043701171875 Q 0.50537109375 1.081787109375 0.451171875 1.1055908203125 Q 0.39697265625 1.12939453125 0.322265625 1.12939453125 Q 0.280517578125 1.12939453125 0.2427978515625 1.1217041015625 Q 0.205078125 1.114013671875 0.1732177734375 1.1026611328125 Q 0.141357421875 1.09130859375 0.1160888671875 1.078125 Q 0.0908203125 1.06494140625 0.07470703125 1.053955078125 L 0.091552734375 0.89208984375 L 0.10986328125 0.89208984375 Q 0.117919921875 0.926513671875 0.13623046875 0.9576416015625 Q 0.154541015625 0.98876953125 0.1812744140625 1.0125732421875 Q 0.2080078125 1.036376953125 0.242431640625 1.0506591796875 Q 0.27685546875 1.06494140625 0.31787109375 1.06494140625 Q 0.355224609375 1.06494140625 0.3848876953125 1.0535888671875 Q 0.41455078125 1.042236328125 0.435791015625 1.0220947265625 Q 0.45703125 1.001953125 0.4683837890625 0.97412109375 Q 0.479736328125 0.9462890625 0.479736328125 0.913330078125 Q 0.479736328125 0.8671875 0.462890625 0.8280029296875 Q 0.446044921875 0.788818359375 0.4185791015625 0.753662109375 Q 0.39111328125 0.718505859375 0.3563232421875 0.685546875 Q 0.321533203125 0.652587890625 0.284912109375 0.6192626953125 Q 0.248291015625 0.5859375 0.2135009765625 0.55078125 Q 0.1787109375 0.515625 0.1512451171875 0.4757080078125 Q 0.123779296875 0.435791015625 0.10693359375 0.3900146484375 Q 0.090087890625 0.34423828125 0.090087890625 0.289306640625 Q 0.090087890625 0.2314453125 0.1124267578125 0.1849365234375 Q 0.134765625 0.138427734375 0.1717529296875 0.10546875 Q 0.208740234375 0.072509765625 0.255615234375 0.054931640625 Q 0.302490234375 0.037353515625 0.352294921875 0.037353515625 Q 0.388916015625 0.037353515625 0.419677734375 0.043212890625 Q 0.450439453125 0.049072265625 0.4749755859375 0.05712890625 Q 0.49951171875 0.065185546875 0.517822265625 0.0732421875 Q 0.5361328125 0.081298828125 0.5478515625 0.08642578125 L 0.542724609375 0.223388671875 M 1.51318359375 1.106689453125 L 1.51318359375 1.103759765625 Q 1.5146484375 1.10009765625 1.515380859375 1.0927734375 Q 1.51611328125 1.08544921875 1.51611328125 1.07958984375 Q 1.51611328125 1.056884765625 1.5098876953125 1.0294189453125 Q 1.503662109375 1.001953125 1.486083984375 0.9609375 L 1.3974609375 0.76171875 Q 1.3564453125 0.76025390625 1.288330078125 0.76025390625 Q 1.22021484375 0.76025390625 1.14111328125 0.76025390625 Q 1.083251953125 0.76025390625 1.0294189453125 0.76025390625 Q 0.9755859375000001 0.76025390625 0.9323730468750001 0.76171875 L 0.8481445312500001 0.955078125 Q 0.8371582031250001 0.982177734375 0.8247070312500001 1.014404296875 Q 0.8122558593750001 1.046630859375 0.8122558593750001 1.07958984375 Q 0.8122558593750001 1.089111328125 0.8137207031250001 1.0953369140625 Q 0.8151855468750001 1.1015625 0.8166503906250001 1.103759765625 L 0.8166503906250001 1.106689453125 L 0.6672363281250001 1.106689453125 L 0.6672363281250001 1.103759765625 Q 0.6804199218750001 1.08984375 0.7001953125000001 1.0543212890625 Q 0.7199707031250001 1.018798828125 0.7434082031250001 0.96533203125 L 1.1630859375 0.034423828125 L 1.2216796875 0.034423828125 L 1.619384765625 0.929443359375 Q 1.63330078125 0.9609375 1.6483154296875 0.9906005859375 Q 1.663330078125 1.020263671875 1.676513671875 1.043701171875 Q 1.689697265625 1.067138671875 1.699951171875 1.083251953125 Q 1.710205078125 1.099365234375 1.7138671875 1.103759765625 L 1.7138671875 1.106689453125 L 1.51318359375 1.106689453125 M 1.03857421875 0.697265625 Q 1.0810546875 0.697265625 1.125732421875 0.6968994140625 Q 1.17041015625 0.696533203125 1.2132568359375 0.6961669921875 Q 1.256103515625 0.69580078125 1.295654296875 0.6954345703125 Q 1.335205078125 0.695068359375 1.367431640625 0.6943359375 L 1.16162109375 0.229248046875 L 0.9594726562500001 0.697265625 L 1.03857421875 0.697265625 M 1.751220703125 1.103759765625 Q 1.75927734375 1.092041015625 1.76953125 1.0689697265625 Q 1.77978515625 1.0458984375 1.78564453125 1.0107421875 Q 1.793701171875 0.95947265625 1.8035888671875 0.8953857421875 Q 1.8134765625 0.831298828125 1.8240966796875 0.760986328125 Q 1.834716796875 0.690673828125 1.8453369140625 0.6170654296875 Q 1.85595703125 0.54345703125 1.8658447265625 0.4720458984375 Q 1.875732421875 0.400634765625 1.8848876953125 0.3343505859375 Q 1.89404296875 0.26806640625 1.9013671875 0.213134765625 Q 1.90869140625 0.158203125 1.9134521484375 0.1175537109375 Q 1.918212890625 0.076904296875 1.92041015625 0.056396484375 L 2.013427734375 0.056396484375 L 2.47412109375 0.917724609375 L 2.93115234375 0.056396484375 L 3.000732421875 0.056396484375 L 3.120849609375 0.926513671875 Q 3.1259765625 0.967529296875 3.1318359375 0.996826171875 Q 3.1376953125 1.026123046875 3.1435546875 1.0469970703125 Q 3.1494140625 1.06787109375 3.1549072265625 1.0814208984375 Q 3.160400390625 1.094970703125 3.16552734375 1.103759765625 L 3.16552734375 1.106689453125 L 2.98095703125 1.106689453125 L 2.98095703125 1.103759765625 Q 2.984619140625 1.095703125 2.9879150390625 1.077392578125 Q 2.9912109375 1.05908203125 2.9912109375 1.033447265625 Q 2.9912109375 1.02392578125 2.990478515625 1.0140380859375 Q 2.98974609375 1.004150390625 2.98828125 0.992431640625 L 2.895263671875 0.290771484375 L 2.463134765625 1.103759765625 L 2.41259765625 1.097900390625 L 1.9775390625 0.283447265625 Q 1.951904296875 0.45703125 1.932861328125 0.604248046875 Q 1.9248046875 0.667236328125 1.916748046875 0.7298583984375 Q 1.90869140625 0.79248046875 1.9024658203125 0.8466796875 Q 1.896240234375 0.90087890625 1.892578125 0.9422607421875 Q 1.888916015625 0.983642578125 1.888916015625 1.00341796875 Q 1.888916015625 1.0283203125 1.890380859375 1.04736328125 Q 1.891845703125 1.06640625 1.893310546875 1.07958984375 Q 1.8955078125 1.094970703125 1.897705078125 1.106689453125 L 1.751220703125 1.106689453125 L 1.751220703125 1.103759765625 M 3.342041015625 0.64306640625 Q 3.342041015625 0.580810546875 3.3402099609375 0.5343017578125 Q 3.33837890625 0.48779296875 3.3358154296875 0.4541015625 Q 3.333251953125 0.42041015625 3.3292236328125 0.397705078125 Q 3.3251953125 0.375 3.32080078125 0.359619140625 L 3.32080078125 0.356689453125 L 3.489990234375 0.356689453125 L 3.489990234375 0.359619140625 Q 3.485595703125 0.375 3.48193359375 0.397705078125 Q 3.478271484375 0.42041015625 3.475341796875 0.4541015625 Q 3.472412109375 0.48779296875 3.470947265625 0.5343017578125 Q 3.469482421875 0.580810546875 3.469482421875 0.64306640625 L 3.469482421875 0.8203125 Q 3.469482421875 0.882568359375 3.470947265625 0.9290771484375 Q 3.472412109375 0.9755859375 3.475341796875 1.00927734375 Q 3.478271484375 1.04296875 3.48193359375 1.065673828125 Q 3.485595703125 1.08837890625 3.489990234375 1.103759765625 L 3.489990234375 1.106689453125 L 3.32080078125 1.106689453125 L 3.32080078125 1.103759765625 Q 3.3251953125 1.08837890625 3.3292236328125 1.065673828125 Q 3.333251953125 1.04296875 3.3358154296875 1.00927734375 Q 3.33837890625 0.9755859375 3.3402099609375 0.9290771484375 Q 3.342041015625 0.882568359375 3.342041015625 0.8203125 L 3.342041015625 0.64306640625 M 3.32666015625 0.134765625 Q 3.32666015625 0.11865234375 3.3328857421875 0.1043701171875 Q 3.339111328125 0.090087890625 3.349365234375 0.0794677734375 Q 3.359619140625 0.06884765625 3.3739013671875 0.0626220703125 Q 3.38818359375 0.056396484375 3.405029296875 0.056396484375 Q 3.421875 0.056396484375 3.4361572265625 0.0626220703125 Q 3.450439453125 0.06884765625 3.4610595703125 0.0794677734375 Q 3.4716796875 0.090087890625 3.4779052734375 0.1043701171875 Q 3.484130859375 0.11865234375 3.484130859375 0.134765625 Q 3.484130859375 0.16845703125 3.46142578125 0.191162109375 Q 3.438720703125 0.2138671875 3.405029296875 0.2138671875 Q 3.38818359375 0.2138671875 3.3739013671875 0.2076416015625 Q 3.359619140625 0.201416015625 3.349365234375 0.1907958984375 Q 3.339111328125 0.18017578125 3.3328857421875 0.1658935546875 Q 3.32666015625 0.151611328125 3.32666015625 0.134765625 M 3.9697265625 0.057861328125 Q 3.951416015625 0.057861328125 3.9305419921875 0.064453125 Q 3.90966796875 0.071044921875 3.89208984375 0.088623046875 Q 3.87451171875 0.106201171875 3.86279296875 0.1373291015625 Q 3.85107421875 0.16845703125 3.85107421875 0.217529296875 L 3.85107421875 0.356689453125 Q 3.889892578125 0.35595703125 3.9239501953125 0.3544921875 Q 3.9580078125 0.35302734375 3.985107421875 0.3515625 Q 4.01220703125 0.35009765625 4.030517578125 0.3482666015625 Q 4.048828125 0.346435546875 4.056884765625 0.344970703125 L 4.043701171875 0.419677734375 Q 4.01806640625 0.4189453125 3.988037109375 0.41748046875 Q 3.96240234375 0.416015625 3.92724609375 0.415283203125 Q 3.89208984375 0.41455078125 3.85107421875 0.413818359375 L 3.85107421875 0.8203125 Q 3.85107421875 0.882568359375 3.8529052734375 0.9290771484375 Q 3.854736328125 0.9755859375 3.8572998046875 1.00927734375 Q 3.85986328125 1.04296875 3.8638916015625 1.065673828125 Q 3.867919921875 1.08837890625 3.872314453125 1.103759765625 L 3.872314453125 1.106689453125 L 3.703125 1.106689453125 L 3.703125 1.103759765625 Q 3.70751953125 1.08837890625 3.711181640625 1.065673828125 Q 3.71484375 1.04296875 3.7177734375 1.00927734375 Q 3.720703125 0.9755859375 3.72216796875 0.9290771484375 Q 3.7236328125 0.882568359375 3.7236328125 0.8203125 L 3.7236328125 0.413818359375 L 3.6005859375 0.418212890625 L 3.6005859375 0.353759765625 Q 3.623291015625 0.355224609375 3.65478515625 0.35595703125 Q 3.686279296875 0.356689453125 3.7236328125 0.356689453125 L 3.7236328125 0.233642578125 Q 3.7236328125 0.17724609375 3.7401123046875 0.1336669921875 Q 3.756591796875 0.090087890625 3.785888671875 0.0604248046875 Q 3.815185546875 0.03076171875 3.856201171875 0.015380859375 Q 3.897216796875 0 3.9462890625 0 Q 3.973388671875 0 3.996826171875 0.003662109375 Q 4.020263671875 0.00732421875 4.0389404296875 0.012451171875 Q 4.0576171875 0.017578125 4.0718994140625 0.0230712890625 Q 4.086181640625 0.028564453125 4.095703125 0.032958984375 L 4.124267578125 0.158935546875 L 4.115478515625 0.163330078125 Q 4.103759765625 0.145751953125 4.08984375 0.1270751953125 Q 4.075927734375 0.1083984375 4.058349609375 0.093017578125 Q 4.040771484375 0.07763671875 4.0191650390625 0.0677490234375 Q 3.99755859375 0.057861328125 3.9697265625 0.057861328125 M 4.427490234375 1.097900390625 L 4.169677734375 0.533935546875 Q 4.15576171875 0.501708984375 4.1396484375 0.4720458984375 Q 4.12353515625 0.4423828125 4.1092529296875 0.4189453125 Q 4.094970703125 0.3955078125 4.083984375 0.3797607421875 Q 4.072998046875 0.364013671875 4.0693359375 0.359619140625 L 4.0693359375 0.356689453125 L 4.26123046875 0.356689453125 L 4.26123046875 0.359619140625 Q 4.259765625 0.36328125 4.259033203125 0.37060546875 Q 4.25830078125 0.3779296875 4.25830078125 0.3837890625 Q 4.25830078125 0.406494140625 4.2652587890625 0.4339599609375 Q 4.272216796875 0.46142578125 4.291259765625 0.50244140625 L 4.493408203125 0.94189453125 L 4.677978515625 0.50830078125 Q 4.689697265625 0.481201171875 4.7017822265625 0.448974609375 Q 4.7138671875 0.416748046875 4.7138671875 0.3837890625 Q 4.7138671875 0.374267578125 4.71240234375 0.3680419921875 Q 4.7109375 0.36181640625 4.70947265625 0.359619140625 L 4.70947265625 0.356689453125 L 4.84130859375 0.356689453125 L 4.84130859375 0.359619140625 Q 4.828125 0.37353515625 4.8079833984375 0.4090576171875 Q 4.787841796875 0.444580078125 4.76513671875 0.498046875 L 4.415771484375 1.330078125 Q 4.404052734375 1.357177734375 4.3919677734375 1.389404296875 Q 4.3798828125 1.421630859375 4.3798828125 1.45458984375 Q 4.3798828125 1.464111328125 4.38134765625 1.4703369140625 Q 4.3828125 1.4765625 4.38427734375 1.478759765625 L 4.38427734375 1.481689453125 L 4.247314453125 1.481689453125 L 4.247314453125 1.478759765625 Q 4.26123046875 1.46484375 4.2813720703125 1.4300537109375 Q 4.301513671875 1.395263671875 4.32421875 1.342529296875 L 4.427490234375 1.097900390625" fill="#102036" fill-rule="nonzero"></path></g><g></g></g><defs><clipPath id="SvgjsClipPath22903"><path d=" M 5.2310546875 -0.6073609640515862 h 4.300319443914484 v 2.3214113812281725 h -4.300319443914484 Z"></path></clipPath><clipPath id="SvgjsClipPath22898bd00b9d1-fff2-4aa8-a764-d389752f5eb3"><path d=" M 5.2310546875 -0.6073609640515862 L 9.531374131414484 -0.6073609640515862 L 9.531374131414484 1.7140504171765862 L 5.2310546875 1.7140504171765862 Z"></path></clipPath></defs></svg>